<?xml version="1.0" encoding="UTF-8"?>
<svg xmlns="http://www.w3.org/2000/svg" width="767" height="429" viewBox="0 0 767 429" role="img" aria-label="launchyfire_icon_01_speed_w_flame">
  <title>launchyfire_icon_01_speed_w_flame</title>
  <path d="M 545.0 270.0 L 544.0 274.0 L 546.0 275.0 L 544.0 277.0 L 546.0 275.0 L 553.0 282.0 L 558.0 294.0 L 565.0 303.0 L 565.0 306.0 L 567.0 309.0 L 570.0 309.0 L 548.0 269.0 Z" fill="#fefefe" opacity="0.98"/>
  <path d="M 57.0 283.0 L 57.0 291.0 L 59.0 291.0 L 60.0 294.0 L 223.0 294.0 L 234.0 297.0 L 239.0 301.0 L 240.0 306.0 L 238.0 324.0 L 239.0 333.0 L 236.0 338.0 L 236.0 361.0 L 234.0 362.0 L 236.0 385.0 L 247.0 401.0 L 257.0 406.0 L 261.0 405.0 L 263.0 408.0 L 284.0 408.0 L 295.0 405.0 L 317.0 393.0 L 317.0 391.0 L 329.0 381.0 L 333.0 374.0 L 339.0 370.0 L 340.0 366.0 L 349.0 358.0 L 351.0 353.0 L 354.0 352.0 L 393.0 303.0 L 396.0 302.0 L 396.0 299.0 L 406.0 291.0 L 411.0 291.0 L 414.0 294.0 L 418.0 308.0 L 422.0 312.0 L 421.0 319.0 L 439.0 382.0 L 443.0 390.0 L 445.0 389.0 L 447.0 391.0 L 446.0 394.0 L 449.0 398.0 L 462.0 406.0 L 484.0 408.0 L 497.0 405.0 L 512.0 398.0 L 532.0 380.0 L 546.0 360.0 L 562.0 331.0 L 560.0 324.0 L 553.0 316.0 L 548.0 305.0 L 539.0 294.0 L 536.0 294.0 L 506.0 346.0 L 491.0 360.0 L 480.0 361.0 L 472.0 352.0 L 446.0 257.0 L 435.0 244.0 L 421.0 239.0 L 405.0 240.0 L 386.0 251.0 L 300.0 353.0 L 288.0 361.0 L 280.0 360.0 L 275.0 351.0 L 276.0 344.0 L 278.0 343.0 L 279.0 316.0 L 282.0 308.0 L 282.0 264.0 L 279.0 263.0 L 280.0 260.0 L 275.0 251.0 L 273.0 251.0 L 271.0 247.0 L 268.0 247.0 L 267.0 244.0 L 258.0 240.0 L 120.0 239.0 L 114.0 244.0 L 114.0 252.0 L 122.0 257.0 L 241.0 258.0 L 249.0 267.0 L 249.0 270.0 L 242.0 279.0 L 68.0 279.0 L 60.0 280.0 Z" fill="#02225f" opacity="0.98"/>
  <path d="M 692.0 270.0 L 686.0 287.0 L 686.0 295.0 L 684.0 296.0 L 682.0 309.0 L 677.0 322.0 L 678.0 324.0 L 675.0 328.0 L 674.0 338.0 L 672.0 340.0 L 663.0 378.0 L 681.0 380.0 L 735.0 379.0 L 737.0 372.0 L 736.0 368.0 L 739.0 367.0 L 739.0 362.0 L 690.0 362.0 L 688.0 360.0 L 690.0 346.0 L 692.0 345.0 L 691.0 342.0 L 694.0 338.0 L 700.0 317.0 L 700.0 310.0 L 702.0 308.0 L 701.0 304.0 L 704.0 301.0 L 708.0 283.0 L 710.0 281.0 L 708.0 278.0 L 712.0 271.0 Z" fill="#02225f" opacity="0.98"/>
  <path d="M 137.0 335.0 L 215.0 336.0 L 218.0 333.0 L 219.0 328.0 L 215.0 322.0 L 141.0 322.0 L 155.0 324.0 L 144.0 325.0 L 142.0 330.0 L 137.0 330.0 Z" fill="#02225f" opacity="0.98"/>
  <path d="M 736.0 192.0 L 735.0 211.0 L 738.0 251.0 L 747.0 251.0 L 746.0 230.0 L 744.0 229.0 L 746.0 226.0 L 745.0 195.0 L 743.0 192.0 Z" fill="#02225f" opacity="0.98"/>
  <path d="M 22.0 283.0 L 22.0 291.0 L 25.0 294.0 L 38.0 294.0 L 41.0 291.0 L 42.0 285.0 L 36.0 279.0 L 26.0 280.0 Z" fill="#02225f" opacity="0.98"/>
  <path d="M 693.0 100.0 L 671.0 101.0 L 668.0 100.0 L 667.0 97.0 L 657.0 97.0 L 652.0 94.0 L 648.0 97.0 L 639.0 96.0 L 638.0 98.0 L 643.0 101.0 L 642.0 103.0 L 625.0 104.0 L 583.0 130.0 L 565.0 147.0 L 551.0 169.0 L 546.0 184.0 L 546.0 194.0 L 543.0 196.0 L 542.0 220.0 L 545.0 221.0 L 545.0 227.0 L 543.0 229.0 L 552.0 221.0 L 551.0 219.0 L 560.0 209.0 L 561.0 204.0 L 564.0 204.0 L 569.0 196.0 L 589.0 176.0 L 624.0 152.0 L 644.0 143.0 L 671.0 126.0 L 687.0 111.0 L 683.0 106.0 L 685.0 104.0 L 689.0 105.0 L 689.0 101.0 L 693.0 104.0 Z" fill="#fd6105" opacity="0.98"/>
  <path d="M 698.0 128.0 L 673.0 150.0 L 616.0 181.0 L 602.0 191.0 L 599.0 196.0 L 586.0 205.0 L 580.0 217.0 L 569.0 228.0 L 570.0 231.0 L 568.0 233.0 L 571.0 233.0 L 573.0 237.0 L 580.0 237.0 L 585.0 244.0 L 595.0 244.0 L 598.0 239.0 L 597.0 236.0 L 601.0 236.0 L 602.0 238.0 L 606.0 237.0 L 608.0 240.0 L 611.0 240.0 L 623.0 226.0 L 627.0 225.0 L 628.0 222.0 L 640.0 213.0 L 647.0 211.0 L 648.0 208.0 L 654.0 207.0 L 655.0 204.0 L 658.0 204.0 L 667.0 197.0 L 679.0 184.0 L 689.0 169.0 L 697.0 143.0 Z" fill="#fd6105" opacity="0.98"/>
  <path d="M 601.0 253.0 L 597.0 258.0 L 600.0 257.0 Z" fill="#fd6105" opacity="0.98"/>
  <path d="M 710.0 27.0 L 706.0 29.0 L 707.0 31.0 L 704.0 32.0 L 703.0 38.0 L 700.0 39.0 L 700.0 43.0 L 697.0 44.0 L 696.0 49.0 L 691.0 52.0 L 690.0 56.0 L 686.0 58.0 L 683.0 64.0 L 680.0 65.0 L 678.0 69.0 L 676.0 68.0 L 673.0 74.0 L 668.0 78.0 L 666.0 77.0 L 663.0 82.0 L 648.0 93.0 L 668.0 96.0 L 668.0 99.0 L 688.0 100.0 L 695.0 98.0 L 701.0 87.0 L 704.0 86.0 L 704.0 79.0 L 710.0 68.0 L 710.0 65.0 L 708.0 64.0 L 708.0 62.0 L 711.0 61.0 L 711.0 35.0 L 708.0 33.0 Z" fill="#fd8709" opacity="0.98"/>
  <path d="M 633.0 101.0 L 639.0 103.0 L 639.0 99.0 L 637.0 98.0 Z" fill="#fd8709" opacity="0.98"/>
  <path d="M 567.0 234.0 L 561.0 242.0 L 557.0 255.0 L 565.0 264.0 L 580.0 292.0 L 580.0 295.0 L 582.0 295.0 L 595.0 265.0 L 597.0 264.0 L 595.0 262.0 L 596.0 256.0 L 602.0 250.0 L 604.0 252.0 L 603.0 249.0 L 605.0 246.0 L 607.0 247.0 L 605.0 245.0 L 606.0 238.0 L 604.0 240.0 L 599.0 238.0 L 595.0 245.0 L 589.0 246.0 L 583.0 244.0 L 580.0 238.0 L 575.0 237.0 L 573.0 239.0 L 571.0 234.0 Z" fill="#e9360c" opacity="0.98"/>
  <path d="M 555.0 255.0 L 550.0 264.0 L 549.0 271.0 L 566.0 301.0 L 572.0 308.0 L 572.0 311.0 L 579.0 300.0 L 579.0 292.0 L 560.0 258.0 Z" fill="#a12a2d" opacity="0.98"/>
  <path d="M 546.0 277.0 L 543.0 282.0 L 540.0 283.0 L 540.0 295.0 L 549.0 305.0 L 562.0 327.0 L 564.0 327.0 L 569.0 316.0 L 569.0 310.0 L 564.0 306.0 L 564.0 303.0 L 557.0 294.0 L 552.0 282.0 Z" fill="#59234a" opacity="0.98"/>
  <path d="M 81.0 328.0 L 86.0 334.0 L 104.0 334.0 L 106.0 332.0 L 106.0 324.0 L 85.0 323.0 Z" fill="#1c4892" opacity="0.98"/>
  <path d="M 107.0 333.0 L 113.0 333.0 L 114.0 335.0 L 136.0 334.0 L 136.0 330.0 L 142.0 329.0 L 143.0 324.0 L 121.0 323.0 L 120.0 325.0 L 107.0 325.0 Z" fill="#023788" opacity="0.98"/>
</svg>
