<?xml version="1.0" encoding="UTF-8"?>
<svg xmlns="http://www.w3.org/2000/svg" width="801" height="502" viewBox="0 0 801 502" role="img" aria-label="launchyfire_icon_04_fast_w_flame">
  <title>launchyfire_icon_04_fast_w_flame</title>
  <path d="M 674.0 165.0 L 654.0 164.0 L 646.0 159.0 L 637.0 159.0 L 638.0 163.0 L 631.0 161.0 L 630.0 164.0 L 627.0 162.0 L 622.0 167.0 L 620.0 166.0 L 613.0 187.0 L 611.0 210.0 L 615.0 235.0 L 623.0 262.0 L 623.0 269.0 L 621.0 270.0 L 614.0 263.0 L 603.0 243.0 L 540.0 389.0 L 537.0 401.0 L 535.0 402.0 L 536.0 404.0 L 525.0 425.0 L 526.0 428.0 L 524.0 429.0 L 522.0 436.0 L 524.0 445.0 L 521.0 447.0 L 522.0 453.0 L 533.0 452.0 L 535.0 447.0 L 542.0 453.0 L 552.0 445.0 L 557.0 447.0 L 556.0 443.0 L 559.0 442.0 L 569.0 424.0 L 568.0 421.0 L 578.0 407.0 L 585.0 392.0 L 629.0 332.0 L 655.0 292.0 L 666.0 259.0 L 666.0 231.0 L 663.0 205.0 L 666.0 187.0 L 672.0 173.0 L 671.0 171.0 L 674.0 170.0 Z" fill="#fd660f" opacity="0.98"/>
  <path d="M 735.0 166.0 L 716.0 164.0 L 712.0 167.0 L 704.0 167.0 L 702.0 164.0 L 698.0 174.0 L 694.0 178.0 L 690.0 202.0 L 695.0 245.0 L 693.0 271.0 L 687.0 293.0 L 668.0 326.0 L 669.0 329.0 L 679.0 334.0 L 684.0 335.0 L 709.0 322.0 L 741.0 296.0 L 759.0 274.0 L 769.0 257.0 L 775.0 242.0 L 781.0 218.0 L 781.0 197.0 L 778.0 193.0 L 779.0 189.0 L 772.0 194.0 L 770.0 192.0 L 773.0 190.0 L 770.0 192.0 L 767.0 189.0 L 761.0 189.0 L 754.0 192.0 L 753.0 195.0 L 749.0 194.0 L 744.0 196.0 L 724.0 210.0 L 716.0 211.0 L 718.0 199.0 L 724.0 188.0 L 723.0 186.0 L 726.0 184.0 L 726.0 180.0 L 731.0 176.0 Z" fill="#fd660f" opacity="0.98"/>
  <path d="M 358.0 330.0 L 354.0 330.0 L 348.0 340.0 L 342.0 338.0 L 339.0 340.0 L 335.0 338.0 L 328.0 342.0 L 328.0 346.0 L 325.0 347.0 L 325.0 350.0 L 316.0 359.0 L 314.0 358.0 L 316.0 360.0 L 312.0 364.0 L 285.0 437.0 L 280.0 442.0 L 275.0 439.0 L 257.0 388.0 L 253.0 383.0 L 253.0 378.0 L 248.0 372.0 L 248.0 365.0 L 245.0 362.0 L 238.0 363.0 L 237.0 365.0 L 230.0 363.0 L 229.0 365.0 L 227.0 363.0 L 222.0 368.0 L 218.0 368.0 L 215.0 373.0 L 211.0 373.0 L 212.0 378.0 L 217.0 384.0 L 223.0 409.0 L 244.0 464.0 L 256.0 477.0 L 271.0 483.0 L 286.0 483.0 L 302.0 477.0 L 312.0 467.0 L 317.0 458.0 L 355.0 356.0 L 354.0 353.0 L 360.0 344.0 L 362.0 334.0 Z" fill="#fd660f" opacity="0.98"/>
  <path d="M 428.0 296.0 L 421.0 305.0 L 426.0 318.0 L 426.0 323.0 L 437.0 349.0 L 438.0 356.0 L 459.0 413.0 L 462.0 416.0 L 461.0 418.0 L 463.0 419.0 L 462.0 421.0 L 464.0 422.0 L 465.0 430.0 L 469.0 435.0 L 479.0 463.0 L 485.0 470.0 L 489.0 470.0 L 495.0 466.0 L 495.0 457.0 L 497.0 455.0 L 502.0 455.0 L 508.0 449.0 L 511.0 450.0 L 512.0 448.0 L 516.0 448.0 L 518.0 443.0 L 512.0 443.0 L 506.0 434.0 L 503.0 426.0 L 504.0 423.0 L 502.0 422.0 L 503.0 419.0 L 463.0 310.0 L 459.0 306.0 L 455.0 295.0 L 453.0 294.0 L 451.0 296.0 L 447.0 293.0 L 439.0 293.0 L 438.0 296.0 L 432.0 295.0 L 431.0 298.0 Z" fill="#fd660f" opacity="0.98"/>
  <path d="M 144.0 452.0 L 146.0 459.0 L 151.0 461.0 L 200.0 461.0 L 206.0 454.0 L 205.0 449.0 L 200.0 445.0 L 151.0 445.0 L 148.0 446.0 Z" fill="#fd660f" opacity="0.98"/>
  <path d="M 111.0 405.0 L 118.0 409.0 L 167.0 409.0 L 171.0 400.0 L 166.0 394.0 L 120.0 394.0 L 118.0 399.0 L 115.0 400.0 L 115.0 403.0 Z" fill="#fd660f" opacity="0.98"/>
  <path d="M 659.0 338.0 L 667.0 343.0 L 673.0 341.0 L 664.0 334.0 Z" fill="#fd660f" opacity="0.98"/>
  <path d="M 498.0 478.0 L 506.0 481.0 L 507.0 477.0 L 502.0 476.0 Z" fill="#fd660f" opacity="0.98"/>
  <path d="M 555.0 449.0 L 550.0 451.0 L 550.0 455.0 L 553.0 456.0 L 556.0 452.0 Z" fill="#fd660f" opacity="0.98"/>
  <path d="M 727.0 24.0 L 723.0 48.0 L 710.0 77.0 L 687.0 103.0 L 654.0 126.0 L 638.0 140.0 L 635.0 146.0 L 629.0 151.0 L 627.0 156.0 L 629.0 158.0 L 628.0 161.0 L 635.0 160.0 L 636.0 157.0 L 639.0 159.0 L 648.0 158.0 L 649.0 161.0 L 654.0 163.0 L 658.0 161.0 L 659.0 163.0 L 666.0 164.0 L 669.0 162.0 L 671.0 163.0 L 674.0 160.0 L 676.0 161.0 L 708.0 131.0 L 718.0 118.0 L 719.0 121.0 L 715.0 133.0 L 716.0 135.0 L 714.0 136.0 L 715.0 138.0 L 711.0 143.0 L 710.0 148.0 L 707.0 150.0 L 703.0 162.0 L 705.0 166.0 L 712.0 166.0 L 713.0 164.0 L 719.0 163.0 L 721.0 160.0 L 730.0 165.0 L 736.0 164.0 L 747.0 143.0 L 752.0 119.0 L 753.0 98.0 L 745.0 59.0 Z" fill="#fd8b11" opacity="0.98"/>
  <path d="M 427.0 232.0 L 410.0 224.0 L 391.0 223.0 L 379.0 226.0 L 375.0 230.0 L 373.0 229.0 L 360.0 241.0 L 353.0 254.0 L 334.0 304.0 L 335.0 307.0 L 321.0 343.0 L 323.0 347.0 L 318.0 352.0 L 321.0 352.0 L 322.0 349.0 L 324.0 350.0 L 324.0 347.0 L 327.0 346.0 L 326.0 341.0 L 334.0 338.0 L 334.0 335.0 L 339.0 339.0 L 341.0 337.0 L 348.0 339.0 L 350.0 333.0 L 354.0 329.0 L 358.0 329.0 L 363.0 333.0 L 370.0 313.0 L 376.0 304.0 L 384.0 278.0 L 390.0 267.0 L 396.0 262.0 L 400.0 262.0 L 404.0 265.0 L 410.0 274.0 L 409.0 277.0 L 414.0 290.0 L 421.0 298.0 L 425.0 298.0 L 432.0 292.0 L 455.0 293.0 L 453.0 282.0 L 450.0 279.0 L 448.0 269.0 L 446.0 268.0 L 445.0 261.0 L 441.0 255.0 L 442.0 252.0 L 437.0 243.0 Z" fill="#fd8b11" opacity="0.98"/>
  <path d="M 91.0 275.0 L 89.0 289.0 L 97.0 298.0 L 157.0 298.0 L 172.0 302.0 L 181.0 308.0 L 193.0 324.0 L 197.0 338.0 L 207.0 359.0 L 207.0 365.0 L 210.0 372.0 L 215.0 372.0 L 219.0 366.0 L 222.0 367.0 L 229.0 361.0 L 234.0 361.0 L 235.0 364.0 L 237.0 364.0 L 237.0 359.0 L 239.0 358.0 L 241.0 362.0 L 245.0 360.0 L 243.0 358.0 L 244.0 352.0 L 239.0 343.0 L 240.0 340.0 L 226.0 301.0 L 217.0 286.0 L 207.0 277.0 L 188.0 270.0 L 100.0 270.0 Z" fill="#fd8b11" opacity="0.98"/>
  <path d="M 64.0 345.0 L 65.0 351.0 L 73.0 355.0 L 75.0 353.0 L 83.0 353.0 L 84.0 355.0 L 99.0 355.0 L 100.0 353.0 L 166.0 353.0 L 169.0 350.0 L 169.0 343.0 L 164.0 339.0 L 70.0 338.0 L 66.0 340.0 L 67.0 342.0 Z" fill="#fd8b11" opacity="0.98"/>
  <path d="M 775.0 154.0 L 772.0 155.0 L 768.0 164.0 L 769.0 167.0 L 761.0 177.0 L 754.0 191.0 L 757.0 191.0 L 762.0 187.0 L 768.0 189.0 L 780.0 188.0 L 781.0 181.0 L 780.0 175.0 L 778.0 174.0 L 779.0 169.0 L 777.0 168.0 L 777.0 161.0 L 774.0 157.0 Z" fill="#fd8b11" opacity="0.98"/>
  <path d="M 20.0 343.0 L 21.0 351.0 L 27.0 355.0 L 30.0 355.0 L 31.0 353.0 L 40.0 354.0 L 45.0 348.0 L 44.0 342.0 L 39.0 338.0 L 25.0 338.0 Z" fill="#fd8b11" opacity="0.98"/>
  <path d="M 90.0 404.0 L 93.0 409.0 L 110.0 408.0 L 110.0 404.0 L 117.0 399.0 L 119.0 395.0 L 117.0 393.0 L 102.0 393.0 L 101.0 395.0 L 95.0 393.0 L 94.0 395.0 L 92.0 394.0 Z" fill="#fd8b11" opacity="0.98"/>
  <path d="M 555.0 446.0 L 548.0 448.0 L 545.0 451.0 L 545.0 455.0 L 539.0 453.0 L 535.0 449.0 L 533.0 453.0 L 525.0 453.0 L 523.0 456.0 L 518.0 452.0 L 509.0 451.0 L 509.0 455.0 L 506.0 458.0 L 497.0 459.0 L 499.0 462.0 L 495.0 467.0 L 488.0 471.0 L 488.0 474.0 L 492.0 477.0 L 502.0 475.0 L 507.0 476.0 L 508.0 483.0 L 516.0 483.0 L 517.0 481.0 L 525.0 479.0 L 532.0 480.0 L 533.0 477.0 L 535.0 478.0 L 543.0 472.0 L 545.0 464.0 L 552.0 461.0 L 553.0 457.0 L 549.0 455.0 L 548.0 451.0 L 555.0 448.0 Z" fill="#fd3a0e" opacity="0.98"/>
  <path d="M 663.0 331.0 L 669.0 338.0 L 674.0 339.0 L 681.0 337.0 L 681.0 335.0 L 668.0 329.0 Z" fill="#fd3a0e" opacity="0.98"/>
  <path d="M 652.0 347.0 L 658.0 349.0 L 665.0 346.0 L 665.0 343.0 L 656.0 340.0 Z" fill="#fd3a0e" opacity="0.98"/>
  <path d="M 521.0 442.0 L 519.0 442.0 L 519.0 447.0 L 522.0 445.0 Z" fill="#fd3a0e" opacity="0.98"/>
</svg>
