<?xml version="1.0" encoding="UTF-8"?>
<svg xmlns="http://www.w3.org/2000/svg" width="745" height="537" viewBox="0 0 745 537" role="img" aria-label="launchyfire_icon_03_w_rocket">
  <title>launchyfire_icon_03_w_rocket</title>
  <path d="M 553.0 165.0 L 551.0 166.0 L 549.0 164.0 L 547.0 166.0 L 549.0 169.0 L 547.0 172.0 Z" fill="#fefefe" opacity="0.98"/>
  <path d="M 380.0 313.0 L 382.0 322.0 L 382.0 314.0 Z" fill="#fefefe" opacity="0.98"/>
  <path d="M 697.0 97.0 L 652.0 115.0 L 600.0 132.0 L 571.0 149.0 L 554.0 165.0 L 548.0 175.0 L 542.0 197.0 L 533.0 218.0 L 510.0 288.0 L 505.0 293.0 L 500.0 288.0 L 489.0 257.0 L 483.0 260.0 L 480.0 259.0 L 480.0 255.0 L 484.0 250.0 L 486.0 251.0 L 486.0 247.0 L 476.0 224.0 L 478.0 221.0 L 475.0 221.0 L 475.0 217.0 L 471.0 211.0 L 465.0 191.0 L 463.0 190.0 L 465.0 188.0 L 461.0 185.0 L 453.0 166.0 L 450.0 164.0 L 450.0 159.0 L 445.0 154.0 L 446.0 152.0 L 443.0 151.0 L 445.0 149.0 L 442.0 149.0 L 443.0 146.0 L 440.0 146.0 L 442.0 143.0 L 438.0 143.0 L 440.0 140.0 L 432.0 127.0 L 423.0 119.0 L 425.0 115.0 L 421.0 115.0 L 418.0 112.0 L 420.0 110.0 L 415.0 104.0 L 410.0 102.0 L 412.0 100.0 L 398.0 90.0 L 390.0 82.0 L 391.0 80.0 L 386.0 74.0 L 384.0 74.0 L 377.0 66.0 L 374.0 66.0 L 373.0 63.0 L 369.0 66.0 L 367.0 71.0 L 364.0 69.0 L 364.0 75.0 L 357.0 80.0 L 354.0 79.0 L 338.0 99.0 L 336.0 97.0 L 338.0 99.0 L 333.0 102.0 L 331.0 107.0 L 328.0 108.0 L 328.0 111.0 L 323.0 114.0 L 323.0 118.0 L 318.0 124.0 L 316.0 123.0 L 318.0 125.0 L 315.0 126.0 L 316.0 128.0 L 313.0 129.0 L 278.0 198.0 L 245.0 290.0 L 242.0 293.0 L 237.0 292.0 L 236.0 288.0 L 234.0 292.0 L 225.0 285.0 L 230.0 280.0 L 233.0 282.0 L 233.0 278.0 L 221.0 248.0 L 198.0 178.0 L 195.0 177.0 L 197.0 173.0 L 193.0 173.0 L 193.0 168.0 L 183.0 157.0 L 162.0 141.0 L 138.0 129.0 L 79.0 110.0 L 53.0 99.0 L 51.0 105.0 L 54.0 106.0 L 53.0 109.0 L 56.0 111.0 L 54.0 115.0 L 58.0 115.0 L 57.0 119.0 L 54.0 118.0 L 56.0 121.0 L 58.0 118.0 L 59.0 119.0 L 57.0 124.0 L 60.0 124.0 L 61.0 126.0 L 59.0 129.0 L 63.0 130.0 L 61.0 135.0 L 63.0 133.0 L 65.0 135.0 L 66.0 141.0 L 64.0 143.0 L 68.0 145.0 L 66.0 148.0 L 68.0 149.0 L 69.0 157.0 L 73.0 159.0 L 71.0 161.0 L 74.0 164.0 L 72.0 167.0 L 76.0 168.0 L 74.0 172.0 L 78.0 173.0 L 75.0 176.0 L 79.0 178.0 L 79.0 185.0 L 86.0 198.0 L 84.0 201.0 L 88.0 202.0 L 86.0 204.0 L 89.0 207.0 L 87.0 210.0 L 91.0 212.0 L 89.0 215.0 L 93.0 220.0 L 92.0 224.0 L 95.0 226.0 L 94.0 229.0 L 100.0 240.0 L 101.0 248.0 L 105.0 255.0 L 104.0 258.0 L 106.0 259.0 L 111.0 275.0 L 113.0 276.0 L 113.0 281.0 L 123.0 310.0 L 125.0 311.0 L 125.0 305.0 L 128.0 307.0 L 130.0 315.0 L 128.0 317.0 L 125.0 313.0 L 126.0 319.0 L 144.0 368.0 L 140.0 352.0 L 146.0 344.0 L 146.0 336.0 L 148.0 335.0 L 151.0 337.0 L 150.0 334.0 L 152.0 332.0 L 160.0 332.0 L 164.0 337.0 L 170.0 337.0 L 164.0 335.0 L 163.0 331.0 L 166.0 330.0 L 171.0 334.0 L 175.0 334.0 L 176.0 332.0 L 177.0 334.0 L 179.0 332.0 L 181.0 334.0 L 185.0 334.0 L 186.0 332.0 L 188.0 334.0 L 193.0 334.0 L 192.0 331.0 L 195.0 330.0 L 196.0 327.0 L 202.0 330.0 L 208.0 328.0 L 208.0 334.0 L 210.0 334.0 L 210.0 331.0 L 212.0 330.0 L 214.0 335.0 L 221.0 338.0 L 219.0 340.0 L 221.0 344.0 L 223.0 342.0 L 224.0 344.0 L 232.0 344.0 L 232.0 341.0 L 237.0 340.0 L 241.0 334.0 L 246.0 332.0 L 250.0 334.0 L 256.0 329.0 L 262.0 330.0 L 264.0 334.0 L 267.0 334.0 L 265.0 328.0 L 269.0 325.0 L 273.0 327.0 L 276.0 319.0 L 285.0 318.0 L 286.0 320.0 L 284.0 322.0 L 288.0 324.0 L 289.0 322.0 L 292.0 322.0 L 294.0 315.0 L 301.0 315.0 L 303.0 317.0 L 301.0 295.0 L 299.0 298.0 L 294.0 290.0 L 299.0 283.0 L 301.0 287.0 L 301.0 273.0 L 314.0 255.0 L 326.0 244.0 L 327.0 224.0 L 325.0 223.0 L 324.0 210.0 L 321.0 208.0 L 326.0 201.0 L 329.0 176.0 L 349.0 134.0 L 361.0 119.0 L 372.0 109.0 L 386.0 122.0 L 398.0 138.0 L 412.0 166.0 L 420.0 201.0 L 418.0 242.0 L 421.0 244.0 L 419.0 241.0 L 420.0 239.0 L 424.0 239.0 L 424.0 242.0 L 429.0 246.0 L 426.0 250.0 L 440.0 267.0 L 442.0 272.0 L 444.0 270.0 L 450.0 270.0 L 453.0 273.0 L 449.0 276.0 L 447.0 281.0 L 444.0 280.0 L 442.0 319.0 L 439.0 320.0 L 439.0 322.0 L 441.0 322.0 L 442.0 319.0 L 447.0 320.0 L 448.0 318.0 L 455.0 318.0 L 459.0 324.0 L 464.0 327.0 L 462.0 321.0 L 467.0 319.0 L 467.0 316.0 L 472.0 312.0 L 473.0 320.0 L 475.0 320.0 L 478.0 325.0 L 482.0 325.0 L 488.0 334.0 L 495.0 330.0 L 496.0 332.0 L 494.0 334.0 L 497.0 334.0 L 498.0 332.0 L 501.0 337.0 L 510.0 337.0 L 510.0 331.0 L 514.0 329.0 L 520.0 330.0 L 521.0 325.0 L 524.0 326.0 L 523.0 332.0 L 529.0 328.0 L 534.0 328.0 L 536.0 330.0 L 545.0 328.0 L 546.0 330.0 L 543.0 331.0 L 543.0 334.0 L 550.0 337.0 L 547.0 333.0 L 549.0 332.0 L 552.0 334.0 L 554.0 332.0 L 557.0 334.0 L 557.0 328.0 L 549.0 331.0 L 547.0 329.0 L 548.0 322.0 L 557.0 322.0 L 561.0 327.0 L 563.0 327.0 L 566.0 322.0 L 572.0 322.0 L 573.0 324.0 L 566.0 328.0 L 566.0 330.0 L 568.0 330.0 L 569.0 327.0 L 572.0 327.0 L 573.0 329.0 L 577.0 328.0 L 578.0 334.0 L 576.0 337.0 L 580.0 334.0 L 580.0 328.0 L 583.0 325.0 L 585.0 325.0 L 589.0 331.0 L 586.0 333.0 L 584.0 330.0 L 586.0 337.0 L 592.0 337.0 L 592.0 333.0 L 590.0 332.0 L 591.0 328.0 L 593.0 328.0 L 594.0 332.0 L 597.0 332.0 L 598.0 334.0 L 603.0 332.0 L 606.0 328.0 L 606.0 337.0 L 610.0 333.0 L 611.0 334.0 L 609.0 339.0 L 610.0 342.0 L 656.0 210.0 L 660.0 204.0 L 663.0 189.0 L 665.0 188.0 L 668.0 176.0 L 672.0 170.0 L 673.0 162.0 L 677.0 160.0 L 675.0 156.0 L 680.0 150.0 L 678.0 148.0 L 680.0 147.0 L 683.0 133.0 L 689.0 122.0 L 688.0 119.0 L 690.0 118.0 L 690.0 114.0 L 692.0 113.0 L 692.0 110.0 L 690.0 109.0 L 695.0 106.0 Z" fill="#1c2f48" opacity="0.98"/>
  <path d="M 369.0 171.0 L 369.0 173.0 L 374.0 172.0 L 375.0 174.0 L 367.0 175.0 L 364.0 173.0 L 367.0 175.0 L 362.0 180.0 L 360.0 179.0 L 358.0 188.0 L 360.0 194.0 L 367.0 200.0 L 372.0 200.0 L 373.0 198.0 L 377.0 200.0 L 381.0 198.0 L 386.0 191.0 L 388.0 192.0 L 386.0 190.0 L 386.0 182.0 L 379.0 173.0 Z" fill="#1c2f48" opacity="0.98"/>
  <path d="M 422.0 369.0 L 423.0 376.0 L 431.0 389.0 L 435.0 384.0 L 435.0 378.0 L 430.0 369.0 Z" fill="#1c2f48" opacity="0.98"/>
  <path d="M 405.0 322.0 L 405.0 327.0 L 408.0 336.0 L 410.0 337.0 L 414.0 332.0 L 414.0 328.0 L 412.0 324.0 Z" fill="#1c2f48" opacity="0.98"/>
  <path d="M 473.0 335.0 L 476.0 340.0 L 485.0 340.0 L 486.0 337.0 L 490.0 337.0 L 486.0 336.0 L 483.0 339.0 L 480.0 336.0 L 483.0 335.0 L 483.0 331.0 L 478.0 331.0 L 477.0 328.0 L 475.0 329.0 L 476.0 334.0 Z" fill="#1c2f48" opacity="0.98"/>
  <path d="M 343.0 297.0 L 332.0 303.0 L 333.0 305.0 L 338.0 306.0 L 339.0 312.0 L 341.0 310.0 L 340.0 301.0 L 343.0 301.0 Z" fill="#1c2f48" opacity="0.98"/>
  <path d="M 421.0 314.0 L 426.0 319.0 L 430.0 320.0 L 431.0 318.0 L 434.0 320.0 L 424.0 311.0 Z" fill="#1c2f48" opacity="0.98"/>
  <path d="M 609.0 344.0 L 605.0 350.0 L 602.0 348.0 L 602.0 363.0 Z" fill="#1c2f48" opacity="0.98"/>
  <path d="M 440.0 407.0 L 446.0 416.0 L 445.0 411.0 Z" fill="#1c2f48" opacity="0.98"/>
  <path d="M 560.0 333.0 L 560.0 335.0 L 563.0 336.0 L 561.0 340.0 L 563.0 340.0 L 565.0 336.0 Z" fill="#1c2f48" opacity="0.98"/>
  <path d="M 401.0 295.0 L 397.0 304.0 L 398.0 313.0 L 406.0 336.0 L 407.0 333.0 L 404.0 327.0 L 404.0 319.0 L 405.0 321.0 L 412.0 323.0 L 415.0 328.0 L 415.0 332.0 L 411.0 336.0 L 410.0 341.0 L 408.0 338.0 L 408.0 342.0 L 418.0 369.0 L 421.0 372.0 L 420.0 365.0 L 423.0 368.0 L 427.0 367.0 L 432.0 370.0 L 433.0 375.0 L 436.0 378.0 L 436.0 384.0 L 431.0 390.0 L 428.0 388.0 L 428.0 391.0 L 441.0 414.0 L 445.0 417.0 L 456.0 435.0 L 482.0 462.0 L 497.0 474.0 L 516.0 485.0 L 533.0 492.0 L 551.0 497.0 L 558.0 497.0 L 563.0 487.0 L 626.0 302.0 L 602.0 365.0 L 600.0 351.0 L 602.0 347.0 L 604.0 349.0 L 606.0 348.0 L 610.0 336.0 L 609.0 335.0 L 607.0 339.0 L 605.0 339.0 L 606.0 330.0 L 598.0 335.0 L 593.0 332.0 L 593.0 329.0 L 591.0 329.0 L 591.0 332.0 L 593.0 333.0 L 592.0 338.0 L 586.0 338.0 L 583.0 331.0 L 581.0 331.0 L 579.0 337.0 L 576.0 338.0 L 575.0 335.0 L 577.0 334.0 L 577.0 329.0 L 573.0 330.0 L 568.0 327.0 L 572.0 323.0 L 566.0 323.0 L 569.0 325.0 L 564.0 326.0 L 563.0 328.0 L 558.0 326.0 L 557.0 323.0 L 548.0 323.0 L 549.0 330.0 L 554.0 329.0 L 555.0 327.0 L 558.0 328.0 L 558.0 334.0 L 555.0 335.0 L 553.0 333.0 L 551.0 335.0 L 548.0 333.0 L 551.0 336.0 L 548.0 338.0 L 542.0 334.0 L 542.0 330.0 L 533.0 333.0 L 532.0 329.0 L 529.0 329.0 L 523.0 333.0 L 523.0 326.0 L 515.0 323.0 L 513.0 325.0 L 512.0 323.0 L 506.0 323.0 L 504.0 321.0 L 506.0 325.0 L 503.0 328.0 L 501.0 326.0 L 499.0 329.0 L 505.0 329.0 L 506.0 325.0 L 510.0 325.0 L 511.0 327.0 L 508.0 328.0 L 508.0 330.0 L 511.0 331.0 L 510.0 338.0 L 501.0 338.0 L 498.0 335.0 L 494.0 335.0 L 493.0 333.0 L 495.0 331.0 L 492.0 330.0 L 492.0 326.0 L 491.0 330.0 L 493.0 332.0 L 491.0 334.0 L 493.0 335.0 L 490.0 338.0 L 486.0 338.0 L 485.0 336.0 L 489.0 331.0 L 486.0 333.0 L 482.0 326.0 L 478.0 326.0 L 477.0 323.0 L 472.0 320.0 L 472.0 313.0 L 468.0 316.0 L 471.0 318.0 L 470.0 321.0 L 463.0 321.0 L 464.0 328.0 L 459.0 325.0 L 455.0 319.0 L 448.0 319.0 L 447.0 321.0 L 442.0 320.0 L 441.0 323.0 L 437.0 323.0 L 438.0 319.0 L 436.0 319.0 L 431.0 313.0 L 429.0 314.0 L 436.0 320.0 L 429.0 321.0 L 420.0 315.0 L 423.0 310.0 L 426.0 311.0 L 424.0 308.0 L 413.0 300.0 Z" fill="#142337" opacity="0.98"/>
  <path d="M 345.0 299.0 L 341.0 302.0 L 342.0 310.0 L 340.0 313.0 L 336.0 308.0 L 337.0 306.0 L 331.0 305.0 L 330.0 302.0 L 320.0 308.0 L 308.0 319.0 L 305.0 318.0 L 305.0 312.0 L 302.0 319.0 L 301.0 316.0 L 294.0 316.0 L 293.0 322.0 L 288.0 325.0 L 283.0 322.0 L 285.0 319.0 L 276.0 320.0 L 276.0 325.0 L 273.0 328.0 L 271.0 326.0 L 266.0 328.0 L 267.0 335.0 L 264.0 335.0 L 262.0 331.0 L 256.0 330.0 L 250.0 335.0 L 248.0 333.0 L 241.0 335.0 L 237.0 341.0 L 233.0 341.0 L 232.0 338.0 L 224.0 338.0 L 223.0 335.0 L 218.0 338.0 L 212.0 334.0 L 212.0 331.0 L 211.0 334.0 L 208.0 335.0 L 208.0 329.0 L 206.0 331.0 L 198.0 331.0 L 197.0 328.0 L 193.0 331.0 L 193.0 335.0 L 188.0 335.0 L 187.0 333.0 L 185.0 335.0 L 181.0 335.0 L 180.0 333.0 L 178.0 335.0 L 171.0 335.0 L 161.0 329.0 L 164.0 331.0 L 163.0 335.0 L 160.0 333.0 L 152.0 333.0 L 151.0 338.0 L 147.0 336.0 L 147.0 344.0 L 141.0 352.0 L 145.0 368.0 L 143.0 369.0 L 140.0 363.0 L 141.0 369.0 L 143.0 370.0 L 151.0 398.0 L 153.0 399.0 L 186.0 498.0 L 203.0 495.0 L 235.0 482.0 L 267.0 459.0 L 290.0 434.0 L 315.0 396.0 L 328.0 368.0 L 331.0 357.0 L 333.0 356.0 L 343.0 326.0 L 346.0 310.0 L 348.0 308.0 Z" fill="#142337" opacity="0.98"/>
  <path d="M 450.0 271.0 L 444.0 271.0 L 442.0 273.0 L 440.0 270.0 L 441.0 295.0 L 443.0 273.0 L 445.0 273.0 L 445.0 279.0 L 447.0 280.0 L 448.0 276.0 L 452.0 274.0 Z" fill="#142337" opacity="0.98"/>
  <path d="M 416.0 235.0 L 416.0 243.0 L 423.0 250.0 L 427.0 248.0 L 428.0 246.0 L 427.0 244.0 L 424.0 244.0 L 423.0 239.0 L 421.0 239.0 L 421.0 245.0 L 417.0 243.0 L 418.0 239.0 Z" fill="#142337" opacity="0.98"/>
  <path d="M 459.0 306.0 L 463.0 308.0 L 464.0 312.0 L 458.0 313.0 L 458.0 317.0 L 465.0 317.0 L 462.0 315.0 L 464.0 313.0 L 467.0 314.0 L 468.0 311.0 L 463.0 306.0 Z" fill="#142337" opacity="0.98"/>
  <path d="M 488.0 248.0 L 487.0 252.0 L 484.0 252.0 L 481.0 255.0 L 481.0 259.0 L 487.0 258.0 L 487.0 252.0 L 491.0 259.0 Z" fill="#142337" opacity="0.98"/>
  <path d="M 226.0 284.0 L 229.0 288.0 L 234.0 290.0 L 231.0 281.0 Z" fill="#142337" opacity="0.98"/>
  <path d="M 298.0 287.0 L 295.0 292.0 L 300.0 294.0 L 300.0 288.0 Z" fill="#142337" opacity="0.98"/>
  <path d="M 417.0 199.0 L 419.0 226.0 L 419.0 201.0 Z" fill="#142337" opacity="0.98"/>
  <path d="M 328.0 195.0 L 325.0 203.0 L 325.0 214.0 Z" fill="#142337" opacity="0.98"/>
  <path d="M 641.0 260.0 L 637.0 266.0 L 634.0 279.0 Z" fill="#142337" opacity="0.98"/>
  <path d="M 254.0 260.0 L 247.0 277.0 L 249.0 276.0 Z" fill="#142337" opacity="0.98"/>
  <path d="M 527.0 235.0 L 525.0 236.0 L 520.0 252.0 Z" fill="#142337" opacity="0.98"/>
  <path d="M 226.0 320.0 L 228.0 323.0 L 226.0 329.0 L 228.0 329.0 L 232.0 324.0 Z" fill="#142337" opacity="0.98"/>
  <path d="M 108.0 269.0 L 112.0 282.0 L 112.0 277.0 Z" fill="#142337" opacity="0.98"/>
  <path d="M 135.0 347.0 L 136.0 354.0 L 140.0 361.0 Z" fill="#142337" opacity="0.98"/>
  <path d="M 125.0 307.0 L 127.0 315.0 L 129.0 315.0 L 127.0 307.0 Z" fill="#142337" opacity="0.98"/>
  <path d="M 328.0 232.0 L 327.0 244.0 L 323.0 248.0 L 328.0 244.0 Z" fill="#142337" opacity="0.98"/>
  <path d="M 334.0 169.0 L 330.0 176.0 L 330.0 181.0 Z" fill="#142337" opacity="0.98"/>
  <path d="M 631.0 288.0 L 627.0 295.0 L 627.0 299.0 Z" fill="#142337" opacity="0.98"/>
  <path d="M 234.0 280.0 L 238.0 291.0 L 238.0 287.0 Z" fill="#142337" opacity="0.98"/>
  <path d="M 581.0 328.0 L 587.0 329.0 L 585.0 326.0 Z" fill="#142337" opacity="0.98"/>
  <path d="M 22.0 23.0 L 34.0 60.0 L 39.0 67.0 L 38.0 70.0 L 41.0 72.0 L 39.0 75.0 L 43.0 77.0 L 41.0 80.0 L 44.0 81.0 L 43.0 85.0 L 46.0 87.0 L 46.0 93.0 L 81.0 108.0 L 129.0 123.0 L 150.0 132.0 L 172.0 145.0 L 190.0 161.0 L 193.0 160.0 L 190.0 157.0 L 191.0 154.0 L 188.0 152.0 L 189.0 149.0 L 186.0 148.0 L 186.0 140.0 L 183.0 139.0 L 183.0 132.0 L 181.0 131.0 L 178.0 118.0 L 175.0 116.0 L 176.0 113.0 L 173.0 111.0 L 173.0 104.0 L 168.0 96.0 L 165.0 85.0 L 148.0 61.0 L 126.0 44.0 L 120.0 43.0 L 116.0 39.0 L 114.0 40.0 L 103.0 34.0 L 100.0 35.0 L 97.0 33.0 L 89.0 33.0 L 88.0 31.0 L 77.0 31.0 L 76.0 29.0 L 67.0 30.0 L 64.0 28.0 L 54.0 28.0 L 53.0 26.0 L 43.0 26.0 L 42.0 24.0 L 33.0 25.0 Z" fill="#f56527" opacity="0.98"/>
  <path d="M 721.0 26.0 L 703.0 24.0 L 702.0 26.0 L 693.0 26.0 L 692.0 28.0 L 682.0 28.0 L 680.0 30.0 L 671.0 29.0 L 670.0 31.0 L 659.0 31.0 L 658.0 33.0 L 649.0 33.0 L 646.0 35.0 L 643.0 34.0 L 625.0 41.0 L 609.0 51.0 L 593.0 66.0 L 583.0 81.0 L 583.0 85.0 L 580.0 87.0 L 581.0 89.0 L 578.0 90.0 L 580.0 92.0 L 577.0 93.0 L 578.0 95.0 L 575.0 98.0 L 569.0 114.0 L 570.0 117.0 L 563.0 130.0 L 563.0 137.0 L 560.0 138.0 L 562.0 140.0 L 555.0 160.0 L 576.0 143.0 L 599.0 130.0 L 669.0 106.0 L 699.0 93.0 L 705.0 73.0 L 707.0 72.0 L 708.0 64.0 L 708.0 63.0 L 710.0 63.0 L 710.0 58.0 L 712.0 57.0 L 713.0 49.0 L 715.0 48.0 L 718.0 35.0 L 720.0 34.0 Z" fill="#f56527" opacity="0.98"/>
  <path d="M 460.0 510.0 L 447.0 499.0 L 428.0 472.0 L 425.0 471.0 L 425.0 467.0 L 413.0 448.0 L 409.0 439.0 L 410.0 437.0 L 406.0 433.0 L 405.0 424.0 L 399.0 413.0 L 399.0 418.0 L 397.0 416.0 L 393.0 419.0 L 383.0 420.0 L 380.0 423.0 L 375.0 421.0 L 372.0 423.0 L 361.0 423.0 L 350.0 428.0 L 345.0 426.0 L 344.0 429.0 L 342.0 428.0 L 342.0 424.0 L 344.0 423.0 L 343.0 419.0 L 340.0 431.0 L 338.0 432.0 L 330.0 453.0 L 313.0 479.0 L 314.0 481.0 L 300.0 498.0 L 298.0 497.0 L 292.0 503.0 L 286.0 512.0 L 288.0 514.0 L 290.0 512.0 L 311.0 509.0 L 312.0 507.0 L 334.0 507.0 L 365.0 504.0 L 366.0 502.0 L 384.0 502.0 L 385.0 504.0 L 406.0 506.0 L 409.0 504.0 L 413.0 507.0 L 427.0 507.0 L 429.0 509.0 L 439.0 510.0 L 442.0 508.0 L 453.0 510.0 L 457.0 514.0 L 459.0 514.0 Z" fill="#f56527" opacity="0.98"/>
  <path d="M 380.0 315.0 L 370.0 315.0 L 369.0 318.0 L 366.0 315.0 L 360.0 357.0 L 356.0 368.0 L 356.0 380.0 L 354.0 381.0 L 353.0 389.0 L 351.0 390.0 L 350.0 399.0 L 352.0 398.0 L 353.0 401.0 L 349.0 402.0 L 349.0 407.0 L 346.0 408.0 L 348.0 413.0 L 343.0 428.0 L 345.0 425.0 L 350.0 427.0 L 361.0 422.0 L 372.0 422.0 L 374.0 420.0 L 380.0 422.0 L 383.0 419.0 L 398.0 415.0 L 398.0 404.0 L 395.0 401.0 L 393.0 385.0 L 390.0 383.0 L 390.0 371.0 L 388.0 369.0 L 388.0 369.0 L 388.0 362.0 L 383.0 346.0 Z" fill="#f8952e" opacity="0.98"/>
</svg>
