<?xml version="1.0" encoding="UTF-8"?>
<svg xmlns="http://www.w3.org/2000/svg" width="509" height="735" viewBox="0 0 509 735" role="img" aria-label="launchyfire_icon_02_flame_w">
  <title>launchyfire_icon_02_flame_w</title>
  <path d="M 257.0 587.0 L 254.0 587.0 L 250.0 594.0 L 251.0 597.0 L 243.0 617.0 L 241.0 618.0 L 242.0 621.0 L 255.0 589.0 L 261.0 599.0 Z" fill="#fefefe" opacity="0.98"/>
  <path d="M 38.0 560.0 L 40.0 570.0 L 44.0 575.0 L 47.0 586.0 L 54.0 595.0 L 42.0 570.0 L 41.0 565.0 L 43.0 563.0 Z" fill="#fefefe" opacity="0.98"/>
  <path d="M 274.0 635.0 L 288.0 672.0 L 281.0 649.0 L 277.0 643.0 L 278.0 639.0 Z" fill="#fefefe" opacity="0.98"/>
  <path d="M 261.0 601.0 L 272.0 632.0 L 274.0 633.0 L 265.0 606.0 Z" fill="#fefefe" opacity="0.98"/>
  <path d="M 230.0 714.0 L 234.0 716.0 L 261.0 716.0 Z" fill="#fefefe" opacity="0.98"/>
  <path d="M 466.0 579.0 L 449.0 609.0 L 455.0 602.0 Z" fill="#fefefe" opacity="0.98"/>
  <path d="M 225.0 668.0 L 220.0 677.0 L 217.0 690.0 L 214.0 693.0 L 215.0 696.0 Z" fill="#fefefe" opacity="0.98"/>
  <path d="M 188.0 691.0 L 197.0 705.0 L 196.0 709.0 L 200.0 708.0 L 191.0 695.0 L 191.0 692.0 Z" fill="#fefefe" opacity="0.98"/>
  <path d="M 170.0 662.0 L 182.0 683.0 L 185.0 685.0 L 179.0 673.0 Z" fill="#fefefe" opacity="0.98"/>
  <path d="M 475.0 559.0 L 471.0 560.0 L 472.0 563.0 L 466.0 577.0 L 468.0 577.0 Z" fill="#fefefe" opacity="0.98"/>
  <path d="M 320.0 696.0 L 312.0 708.0 L 319.0 708.0 L 316.0 707.0 L 315.0 704.0 Z" fill="#fefefe" opacity="0.98"/>
  <path d="M 294.0 690.0 L 300.0 709.0 L 299.0 712.0 L 301.0 712.0 L 299.0 701.0 Z" fill="#fefefe" opacity="0.98"/>
  <path d="M 233.0 647.0 L 231.0 647.0 L 225.0 666.0 L 227.0 665.0 Z" fill="#fefefe" opacity="0.98"/>
  <path d="M 241.0 623.0 L 238.0 627.0 L 234.0 642.0 L 232.0 643.0 L 233.0 645.0 Z" fill="#fefefe" opacity="0.98"/>
  <path d="M 267.0 716.0 L 278.0 716.0 L 280.0 714.0 Z" fill="#fefefe" opacity="0.98"/>
  <path d="M 433.0 631.0 L 418.0 647.0 L 432.0 634.0 Z" fill="#fefefe" opacity="0.98"/>
  <path d="M 329.0 682.0 L 322.0 689.0 L 321.0 694.0 Z" fill="#fefefe" opacity="0.98"/>
  <path d="M 448.0 611.0 L 440.0 622.0 L 444.0 619.0 Z" fill="#fefefe" opacity="0.98"/>
  <path d="M 364.0 689.0 L 361.0 689.0 L 354.0 694.0 L 363.0 691.0 Z" fill="#fefefe" opacity="0.98"/>
  <path d="M 412.0 653.0 L 401.0 662.0 L 401.0 664.0 L 403.0 664.0 Z" fill="#fefefe" opacity="0.98"/>
  <path d="M 77.0 630.0 L 83.0 637.0 L 83.0 635.0 Z" fill="#fefefe" opacity="0.98"/>
  <path d="M 55.0 597.0 L 56.0 602.0 L 60.0 604.0 Z" fill="#fefefe" opacity="0.98"/>
  <path d="M 449.0 325.0 L 446.0 323.0 L 448.0 325.0 L 447.0 329.0 L 445.0 326.0 L 440.0 328.0 L 439.0 326.0 L 436.0 326.0 L 435.0 323.0 L 432.0 325.0 L 430.0 322.0 L 430.0 316.0 L 428.0 315.0 L 430.0 312.0 L 428.0 314.0 L 423.0 312.0 L 418.0 315.0 L 420.0 317.0 L 419.0 319.0 L 410.0 319.0 L 413.0 322.0 L 409.0 323.0 L 407.0 327.0 L 398.0 326.0 L 394.0 330.0 L 389.0 330.0 L 388.0 332.0 L 382.0 332.0 L 379.0 330.0 L 376.0 334.0 L 376.0 332.0 L 366.0 333.0 L 362.0 330.0 L 354.0 330.0 L 351.0 334.0 L 349.0 332.0 L 346.0 334.0 L 345.0 332.0 L 339.0 332.0 L 338.0 329.0 L 334.0 329.0 L 339.0 322.0 L 338.0 321.0 L 317.0 345.0 L 260.0 392.0 L 244.0 410.0 L 233.0 426.0 L 233.0 429.0 L 230.0 431.0 L 228.0 429.0 L 228.0 399.0 L 230.0 397.0 L 233.0 379.0 L 239.0 364.0 L 255.0 337.0 L 271.0 315.0 L 284.0 301.0 L 298.0 280.0 L 295.0 276.0 L 300.0 270.0 L 299.0 267.0 L 296.0 268.0 L 295.0 271.0 L 280.0 269.0 L 280.0 273.0 L 282.0 274.0 L 280.0 278.0 L 277.0 277.0 L 277.0 274.0 L 273.0 274.0 L 270.0 280.0 L 263.0 280.0 L 255.0 276.0 L 255.0 280.0 L 252.0 283.0 L 246.0 281.0 L 249.0 283.0 L 248.0 287.0 L 240.0 287.0 L 239.0 291.0 L 232.0 288.0 L 231.0 291.0 L 227.0 290.0 L 224.0 292.0 L 223.0 289.0 L 219.0 287.0 L 222.0 292.0 L 221.0 294.0 L 210.0 285.0 L 206.0 286.0 L 206.0 288.0 L 201.0 291.0 L 201.0 287.0 L 197.0 289.0 L 193.0 286.0 L 195.0 289.0 L 192.0 290.0 L 189.0 285.0 L 181.0 285.0 L 178.0 280.0 L 175.0 283.0 L 168.0 283.0 L 167.0 281.0 L 165.0 283.0 L 156.0 283.0 L 155.0 286.0 L 150.0 285.0 L 149.0 283.0 L 145.0 283.0 L 141.0 286.0 L 127.0 285.0 L 126.0 287.0 L 123.0 287.0 L 122.0 291.0 L 113.0 291.0 L 112.0 288.0 L 105.0 289.0 L 104.0 287.0 L 107.0 286.0 L 105.0 285.0 L 99.0 291.0 L 98.0 288.0 L 109.0 277.0 L 108.0 276.0 L 79.0 311.0 L 59.0 342.0 L 41.0 380.0 L 41.0 384.0 L 39.0 385.0 L 36.0 400.0 L 46.0 402.0 L 57.0 408.0 L 60.0 407.0 L 72.0 415.0 L 81.0 418.0 L 101.0 431.0 L 127.0 456.0 L 130.0 456.0 L 143.0 475.0 L 149.0 479.0 L 165.0 505.0 L 164.0 508.0 L 167.0 509.0 L 176.0 526.0 L 177.0 521.0 L 180.0 525.0 L 182.0 523.0 L 184.0 524.0 L 184.0 530.0 L 182.0 533.0 L 180.0 532.0 L 187.0 549.0 L 198.0 546.0 L 198.0 544.0 L 202.0 542.0 L 210.0 542.0 L 215.0 536.0 L 218.0 537.0 L 235.0 504.0 L 237.0 496.0 L 246.0 483.0 L 246.0 480.0 L 249.0 479.0 L 248.0 476.0 L 251.0 475.0 L 250.0 472.0 L 256.0 468.0 L 260.0 471.0 L 259.0 473.0 L 262.0 475.0 L 261.0 477.0 L 264.0 479.0 L 263.0 481.0 L 266.0 482.0 L 266.0 487.0 L 269.0 488.0 L 271.0 492.0 L 270.0 495.0 L 273.0 496.0 L 276.0 505.0 L 284.0 517.0 L 287.0 529.0 L 295.0 540.0 L 303.0 559.0 L 304.0 556.0 L 326.0 546.0 L 336.0 529.0 L 337.0 523.0 L 350.0 500.0 L 352.0 501.0 L 350.0 499.0 L 354.0 497.0 L 356.0 490.0 L 363.0 483.0 L 363.0 480.0 L 391.0 447.0 L 410.0 431.0 L 439.0 413.0 L 452.0 407.0 L 455.0 408.0 L 456.0 406.0 L 465.0 404.0 L 466.0 402.0 L 476.0 400.0 L 476.0 394.0 L 469.0 371.0 L 465.0 366.0 L 462.0 353.0 L 460.0 352.0 L 460.0 348.0 L 456.0 343.0 Z" fill="#fd6418" opacity="0.98"/>
  <path d="M 483.0 426.0 L 481.0 426.0 L 471.0 442.0 L 465.0 448.0 L 456.0 462.0 L 456.0 466.0 L 451.0 471.0 L 451.0 475.0 L 440.0 489.0 L 442.0 491.0 L 439.0 492.0 L 440.0 495.0 L 433.0 507.0 L 429.0 508.0 L 431.0 511.0 L 412.0 546.0 L 415.0 545.0 L 420.0 549.0 L 431.0 547.0 L 437.0 548.0 L 442.0 542.0 L 451.0 541.0 L 453.0 539.0 L 454.0 541.0 L 467.0 541.0 L 471.0 548.0 L 474.0 548.0 L 480.0 523.0 L 483.0 524.0 L 481.0 520.0 L 482.0 515.0 L 485.0 514.0 L 484.0 499.0 L 487.0 500.0 L 487.0 496.0 L 485.0 495.0 L 487.0 494.0 L 488.0 481.0 L 487.0 449.0 L 485.0 446.0 Z" fill="#fd6418" opacity="0.98"/>
  <path d="M 28.0 425.0 L 28.0 437.0 L 25.0 441.0 L 26.0 455.0 L 23.0 458.0 L 25.0 466.0 L 25.0 487.0 L 23.0 490.0 L 23.0 496.0 L 27.0 500.0 L 27.0 508.0 L 29.0 510.0 L 31.0 523.0 L 33.0 518.0 L 35.0 522.0 L 34.0 525.0 L 31.0 526.0 L 32.0 530.0 L 34.0 526.0 L 38.0 525.0 L 39.0 521.0 L 42.0 521.0 L 43.0 519.0 L 47.0 520.0 L 57.0 512.0 L 64.0 517.0 L 64.0 521.0 L 67.0 521.0 L 68.0 523.0 L 85.0 522.0 L 76.0 501.0 L 66.0 489.0 L 66.0 486.0 L 59.0 475.0 L 60.0 472.0 L 58.0 468.0 L 54.0 465.0 L 52.0 458.0 L 48.0 456.0 L 48.0 452.0 L 45.0 452.0 L 46.0 449.0 L 43.0 448.0 L 42.0 443.0 L 38.0 437.0 L 34.0 435.0 L 34.0 431.0 L 32.0 431.0 Z" fill="#fd6418" opacity="0.98"/>
  <path d="M 208.0 561.0 L 204.0 565.0 L 194.0 563.0 L 200.0 577.0 L 203.0 575.0 Z" fill="#fd6418" opacity="0.98"/>
  <path d="M 308.0 572.0 L 310.0 578.0 L 314.0 579.0 L 312.0 577.0 L 314.0 571.0 Z" fill="#fd6418" opacity="0.98"/>
  <path d="M 412.0 548.0 L 410.0 548.0 L 405.0 559.0 L 411.0 553.0 Z" fill="#fd6418" opacity="0.98"/>
  <path d="M 222.0 26.0 L 217.0 25.0 L 230.0 59.0 L 233.0 77.0 L 233.0 94.0 L 228.0 121.0 L 221.0 139.0 L 203.0 170.0 L 190.0 189.0 L 185.0 192.0 L 183.0 198.0 L 174.0 205.0 L 169.0 214.0 L 149.0 234.0 L 145.0 235.0 L 136.0 244.0 L 138.0 246.0 L 103.0 284.0 L 106.0 283.0 L 108.0 285.0 L 105.0 288.0 L 112.0 287.0 L 113.0 290.0 L 122.0 290.0 L 122.0 287.0 L 127.0 284.0 L 141.0 285.0 L 145.0 282.0 L 149.0 282.0 L 150.0 284.0 L 155.0 285.0 L 156.0 282.0 L 165.0 282.0 L 167.0 280.0 L 168.0 282.0 L 175.0 282.0 L 176.0 285.0 L 179.0 282.0 L 181.0 284.0 L 189.0 284.0 L 192.0 289.0 L 194.0 289.0 L 192.0 287.0 L 193.0 285.0 L 197.0 288.0 L 202.0 285.0 L 203.0 288.0 L 205.0 288.0 L 206.0 285.0 L 210.0 284.0 L 219.0 293.0 L 221.0 293.0 L 218.0 288.0 L 219.0 285.0 L 224.0 291.0 L 231.0 289.0 L 232.0 287.0 L 239.0 290.0 L 240.0 286.0 L 248.0 286.0 L 248.0 283.0 L 254.0 280.0 L 255.0 275.0 L 263.0 279.0 L 270.0 279.0 L 270.0 276.0 L 273.0 273.0 L 277.0 273.0 L 278.0 277.0 L 280.0 277.0 L 282.0 273.0 L 286.0 273.0 L 282.0 272.0 L 280.0 274.0 L 280.0 268.0 L 295.0 270.0 L 295.0 268.0 L 301.0 264.0 L 305.0 265.0 L 314.0 248.0 L 316.0 249.0 L 314.0 245.0 L 316.0 243.0 L 318.0 244.0 L 316.0 238.0 L 319.0 232.0 L 321.0 235.0 L 319.0 231.0 L 323.0 228.0 L 323.0 225.0 L 321.0 224.0 L 324.0 222.0 L 325.0 211.0 L 327.0 209.0 L 327.0 202.0 L 325.0 201.0 L 325.0 182.0 L 325.0 181.0 L 327.0 176.0 L 318.0 140.0 L 316.0 139.0 L 313.0 129.0 L 307.0 121.0 L 304.0 112.0 L 289.0 93.0 L 286.0 86.0 L 252.0 50.0 Z" fill="#fd9015" opacity="0.98"/>
  <path d="M 358.0 208.0 L 364.0 240.0 L 363.0 266.0 L 359.0 276.0 L 361.0 281.0 L 358.0 282.0 L 357.0 285.0 L 359.0 286.0 L 356.0 288.0 L 357.0 290.0 L 354.0 292.0 L 354.0 295.0 L 350.0 300.0 L 352.0 302.0 L 347.0 307.0 L 347.0 311.0 L 336.0 328.0 L 338.0 326.0 L 339.0 331.0 L 345.0 331.0 L 346.0 333.0 L 348.0 331.0 L 351.0 333.0 L 354.0 329.0 L 362.0 329.0 L 366.0 332.0 L 374.0 331.0 L 375.0 333.0 L 379.0 329.0 L 382.0 331.0 L 388.0 331.0 L 389.0 329.0 L 394.0 329.0 L 398.0 325.0 L 405.0 325.0 L 406.0 322.0 L 412.0 322.0 L 409.0 319.0 L 419.0 318.0 L 417.0 315.0 L 423.0 311.0 L 431.0 316.0 L 432.0 324.0 L 435.0 322.0 L 436.0 325.0 L 439.0 325.0 L 440.0 327.0 L 443.0 324.0 L 445.0 325.0 L 447.0 321.0 L 444.0 321.0 L 444.0 318.0 L 428.0 292.0 L 428.0 287.0 L 421.0 277.0 L 417.0 275.0 L 417.0 271.0 L 380.0 227.0 Z" fill="#fd9015" opacity="0.98"/>
  <path d="M 332.0 339.0 L 329.0 339.0 L 328.0 336.0 L 318.0 347.0 L 328.0 345.0 L 331.0 343.0 Z" fill="#fd9015" opacity="0.98"/>
  <path d="M 27.0 510.0 L 27.0 519.0 L 37.0 555.0 L 50.0 571.0 L 76.0 593.0 L 99.0 607.0 L 119.0 616.0 L 145.0 623.0 L 142.0 621.0 L 142.0 616.0 L 138.0 612.0 L 133.0 600.0 L 129.0 596.0 L 124.0 584.0 L 86.0 518.0 L 85.0 523.0 L 68.0 524.0 L 63.0 521.0 L 63.0 517.0 L 61.0 516.0 L 63.0 513.0 L 61.0 515.0 L 57.0 513.0 L 47.0 521.0 L 43.0 520.0 L 42.0 522.0 L 39.0 522.0 L 39.0 525.0 L 34.0 527.0 L 33.0 535.0 Z" fill="#f03122" opacity="0.98"/>
  <path d="M 476.0 545.0 L 472.0 553.0 L 467.0 542.0 L 462.0 541.0 L 454.0 542.0 L 452.0 540.0 L 451.0 542.0 L 445.0 542.0 L 437.0 549.0 L 431.0 548.0 L 420.0 550.0 L 416.0 549.0 L 414.0 546.0 L 412.0 553.0 L 401.0 566.0 L 405.0 554.0 L 415.0 540.0 L 415.0 535.0 L 404.0 554.0 L 403.0 560.0 L 388.0 582.0 L 383.0 595.0 L 375.0 605.0 L 366.0 624.0 L 401.0 612.0 L 432.0 595.0 L 467.0 564.0 L 474.0 555.0 Z" fill="#f03122" opacity="0.98"/>
  <path d="M 222.0 533.0 L 217.0 540.0 L 215.0 537.0 L 210.0 543.0 L 199.0 544.0 L 198.0 548.0 L 195.0 547.0 L 190.0 549.0 L 189.0 553.0 L 185.0 548.0 L 194.0 569.0 L 194.0 561.0 L 196.0 563.0 L 204.0 563.0 L 208.0 560.0 L 208.0 567.0 Z" fill="#f03122" opacity="0.98"/>
  <path d="M 291.0 537.0 L 307.0 575.0 L 308.0 571.0 L 314.0 569.0 L 314.0 574.0 L 316.0 574.0 L 323.0 556.0 L 329.0 547.0 L 330.0 541.0 L 325.0 548.0 L 323.0 547.0 L 319.0 551.0 L 304.0 557.0 L 302.0 560.0 L 294.0 540.0 Z" fill="#f03122" opacity="0.98"/>
  <path d="M 171.0 520.0 L 176.0 532.0 L 180.0 536.0 L 178.0 530.0 L 183.0 530.0 L 183.0 524.0 L 180.0 526.0 L 177.0 522.0 L 178.0 526.0 L 176.0 527.0 Z" fill="#f03122" opacity="0.98"/>
  <path d="M 196.0 572.0 L 201.0 583.0 L 204.0 576.0 L 201.0 580.0 Z" fill="#f03122" opacity="0.98"/>
  <path d="M 65.0 483.0 L 73.0 497.0 L 70.0 489.0 Z" fill="#f03122" opacity="0.98"/>
  <path d="M 428.0 603.0 L 425.0 601.0 L 412.0 610.0 L 405.0 612.0 L 401.0 617.0 L 404.0 620.0 L 397.0 626.0 L 396.0 623.0 L 392.0 624.0 L 391.0 622.0 L 388.0 622.0 L 385.0 624.0 L 388.0 624.0 L 390.0 626.0 L 389.0 628.0 L 379.0 630.0 L 378.0 628.0 L 382.0 625.0 L 375.0 624.0 L 363.0 628.0 L 360.0 634.0 L 362.0 633.0 L 366.0 637.0 L 368.0 645.0 L 364.0 648.0 L 364.0 652.0 L 359.0 657.0 L 358.0 661.0 L 347.0 661.0 L 347.0 655.0 L 320.0 699.0 L 325.0 702.0 L 321.0 704.0 L 348.0 695.0 L 342.0 691.0 L 335.0 690.0 L 330.0 686.0 L 338.0 673.0 L 339.0 677.0 L 344.0 680.0 L 348.0 688.0 L 355.0 688.0 L 354.0 691.0 L 378.0 679.0 L 396.0 664.0 L 400.0 663.0 L 417.0 646.0 L 414.0 647.0 L 414.0 642.0 L 410.0 642.0 L 412.0 636.0 L 418.0 633.0 L 425.0 633.0 L 426.0 635.0 L 423.0 638.0 L 424.0 639.0 L 436.0 625.0 L 433.0 624.0 L 433.0 621.0 L 430.0 618.0 L 432.0 609.0 L 427.0 605.0 Z" fill="#071538" opacity="0.98"/>
  <path d="M 256.0 592.0 L 241.0 627.0 L 213.0 710.0 L 230.0 713.0 L 234.0 712.0 L 236.0 708.0 L 233.0 705.0 L 234.0 702.0 L 230.0 700.0 L 224.0 700.0 L 221.0 698.0 L 219.0 702.0 L 217.0 702.0 L 220.0 689.0 L 227.0 674.0 L 228.0 680.0 L 234.0 679.0 L 235.0 683.0 L 242.0 690.0 L 250.0 692.0 L 256.0 683.0 L 256.0 667.0 L 270.0 661.0 L 270.0 657.0 L 262.0 651.0 L 263.0 648.0 L 259.0 645.0 L 259.0 641.0 L 263.0 638.0 L 269.0 639.0 L 270.0 636.0 L 273.0 641.0 L 274.0 639.0 Z" fill="#071538" opacity="0.98"/>
  <path d="M 161.0 692.0 L 164.0 695.0 L 191.0 704.0 L 188.0 701.0 L 182.0 700.0 L 185.0 698.0 L 186.0 693.0 L 188.0 695.0 L 182.0 684.0 L 181.0 688.0 L 178.0 687.0 L 176.0 690.0 L 171.0 691.0 L 170.0 695.0 Z" fill="#071538" opacity="0.98"/>
  <path d="M 456.0 593.0 L 452.0 598.0 L 451.0 595.0 L 442.0 599.0 L 440.0 608.0 L 443.0 609.0 L 445.0 607.0 L 447.0 609.0 Z" fill="#071538" opacity="0.98"/>
  <path d="M 450.0 586.0 L 447.0 585.0 L 443.0 590.0 L 448.0 590.0 Z" fill="#071538" opacity="0.98"/>
  <path d="M 271.0 638.0 L 269.0 641.0 L 266.0 639.0 L 260.0 641.0 L 260.0 645.0 L 264.0 648.0 L 263.0 651.0 L 271.0 657.0 L 271.0 661.0 L 260.0 668.0 L 257.0 683.0 L 250.0 693.0 L 242.0 691.0 L 237.0 687.0 L 234.0 681.0 L 228.0 681.0 L 227.0 677.0 L 225.0 679.0 L 219.0 699.0 L 222.0 696.0 L 224.0 699.0 L 234.0 700.0 L 234.0 705.0 L 237.0 707.0 L 235.0 711.0 L 243.0 711.0 L 245.0 714.0 L 265.0 713.0 L 262.0 711.0 L 262.0 703.0 L 266.0 692.0 L 272.0 684.0 L 273.0 678.0 L 283.0 669.0 L 282.0 660.0 L 278.0 657.0 Z" fill="#0b2150" opacity="0.98"/>
  <path d="M 180.0 685.0 L 178.0 678.0 L 174.0 674.0 L 172.0 667.0 L 161.0 650.0 L 159.0 653.0 L 153.0 653.0 L 141.0 659.0 L 134.0 660.0 L 128.0 665.0 L 126.0 670.0 L 119.0 667.0 L 133.0 679.0 L 139.0 682.0 L 141.0 681.0 L 142.0 684.0 L 149.0 688.0 L 154.0 688.0 L 155.0 690.0 L 163.0 691.0 L 165.0 693.0 L 174.0 688.0 L 176.0 689.0 Z" fill="#0b2150" opacity="0.98"/>
  <path d="M 463.0 576.0 L 456.0 579.0 L 459.0 581.0 L 456.0 587.0 L 455.0 583.0 L 450.0 584.0 L 452.0 586.0 L 448.0 591.0 L 448.0 591.0 L 427.0 600.0 L 429.0 606.0 L 433.0 609.0 L 431.0 618.0 L 435.0 621.0 L 434.0 623.0 L 443.0 612.0 L 443.0 610.0 L 439.0 608.0 L 441.0 599.0 L 449.0 594.0 L 454.0 594.0 Z" fill="#0b2150" opacity="0.98"/>
  <path d="M 365.0 637.0 L 361.0 635.0 L 347.0 660.0 L 349.0 658.0 L 352.0 661.0 L 358.0 660.0 L 358.0 657.0 L 363.0 652.0 L 363.0 648.0 L 367.0 645.0 Z" fill="#0b2150" opacity="0.98"/>
  <path d="M 259.0 607.0 L 250.0 610.0 L 245.0 625.0 L 250.0 620.0 L 264.0 621.0 Z" fill="#0b2150" opacity="0.98"/>
  <path d="M 331.0 685.0 L 335.0 689.0 L 342.0 690.0 L 345.0 693.0 L 349.0 693.0 L 353.0 690.0 L 348.0 689.0 L 343.0 683.0 L 343.0 680.0 L 336.0 677.0 Z" fill="#0b2150" opacity="0.98"/>
  <path d="M 248.0 645.0 L 241.0 645.0 L 239.0 641.0 L 230.0 667.0 L 234.0 662.0 L 238.0 663.0 L 238.0 661.0 L 235.0 661.0 L 235.0 657.0 L 238.0 658.0 L 236.0 653.0 L 243.0 654.0 L 245.0 650.0 L 248.0 650.0 Z" fill="#0b2150" opacity="0.98"/>
  <path d="M 424.0 635.0 L 418.0 634.0 L 413.0 636.0 L 411.0 642.0 L 415.0 642.0 L 414.0 646.0 L 424.0 637.0 Z" fill="#0b2150" opacity="0.98"/>
  <path d="M 403.0 614.0 L 378.0 624.0 L 383.0 624.0 L 395.0 618.0 L 397.0 623.0 L 401.0 623.0 L 402.0 619.0 L 399.0 618.0 Z" fill="#0b2150" opacity="0.98"/>
  <path d="M 395.0 662.0 L 386.0 662.0 L 383.0 668.0 L 386.0 670.0 L 395.0 664.0 Z" fill="#0b2150" opacity="0.98"/>
  <path d="M 389.0 626.0 L 385.0 625.0 L 380.0 628.0 Z" fill="#0b2150" opacity="0.98"/>
  <path d="M 89.0 638.0 L 101.0 651.0 L 101.0 646.0 L 119.0 645.0 L 120.0 642.0 L 128.0 643.0 L 133.0 638.0 L 136.0 640.0 L 144.0 640.0 L 145.0 642.0 L 152.0 641.0 L 156.0 646.0 L 145.0 626.0 L 143.0 627.0 L 128.0 621.0 L 125.0 623.0 L 116.0 621.0 L 115.0 624.0 L 110.0 626.0 L 105.0 625.0 L 99.0 628.0 L 94.0 628.0 L 95.0 631.0 L 92.0 632.0 Z" fill="#0f47a7" opacity="0.98"/>
  <path d="M 284.0 674.0 L 275.0 691.0 L 275.0 695.0 L 269.0 702.0 L 268.0 711.0 L 282.0 711.0 L 287.0 709.0 L 298.0 711.0 L 294.0 709.0 L 294.0 701.0 L 292.0 699.0 L 291.0 689.0 L 289.0 688.0 L 291.0 684.0 L 288.0 684.0 Z" fill="#0f47a7" opacity="0.98"/>
  <path d="M 43.0 567.0 L 48.0 582.0 L 66.0 614.0 L 86.0 636.0 L 89.0 637.0 L 94.0 627.0 L 99.0 627.0 L 105.0 624.0 L 110.0 625.0 L 115.0 623.0 L 116.0 620.0 L 124.0 622.0 L 98.0 610.0 L 79.0 598.0 Z" fill="#125dd2" opacity="0.98"/>
  <path d="M 158.0 644.0 L 155.0 647.0 L 152.0 643.0 L 132.0 640.0 L 128.0 644.0 L 120.0 643.0 L 119.0 646.0 L 101.0 647.0 L 104.0 652.0 L 99.0 651.0 L 103.0 655.0 L 107.0 654.0 L 107.0 657.0 L 113.0 663.0 L 126.0 669.0 L 127.0 665.0 L 134.0 659.0 L 156.0 652.0 Z" fill="#0b398f" opacity="0.98"/>
  <path d="M 283.0 670.0 L 274.0 678.0 L 274.0 682.0 L 265.0 697.0 L 263.0 711.0 L 267.0 713.0 L 275.0 713.0 L 268.0 712.0 L 267.0 706.0 L 271.0 699.0 L 270.0 697.0 L 274.0 695.0 L 273.0 693.0 L 282.0 677.0 L 282.0 673.0 L 285.0 673.0 Z" fill="#0b398f" opacity="0.98"/>
</svg>
